# xmcd
#
# Track frame offsets:
#	150
#	12796
#	25535
#	46654
#	60600
#	74340
#	89307
#	103188
#	119024
#	132606
#	146971
#	160509
#	170829
#
# Disc length: 2445 seconds
#
# Revision: 1
# Processed by: cddbd v1.5.2PL0 Copyright (c) Steve Scherf et al.
# Submitted via: audiograbber 1.83.01
#
DISCID=b4098b0d
DTITLE=Gustavo e Montenegro - Coração Baladeiro
DYEAR=2010
DGENRE=Sertanejo
TTITLE0=Amor de Televisão
TTITLE1=Impossível Esquecer
TTITLE2=Nova York - Saudade - Nascemos Pra Cantar - O Que Tiver De Vir Virá
TTITLE3=Coração Baladeiro
TTITLE4=Te Espero no Farol - Mimar Você
TTITLE5=Hoje Eu Sei
TTITLE6=Labirinto
TTITLE7=Sonhei Com Você - De Igual Pra Igual - Solidão
TTITLE8=Me Liga Depois
TTITLE9=Ei Você
TTITLE10=Me Leva Pra Casa - Olhos Vendados
TTITLE11=Fogo e Paixão - Chuvas de Verão
TTITLE12=Amor de Televisão (bonus)
EXTD=Dupla de Divinopolis - MG
EXTT0=
EXTT1=
EXTT2=
EXTT3=
EXTT4=
EXTT5=
EXTT6=
EXTT7=
EXTT8=
EXTT9=
EXTT10=
EXTT11=
EXTT12=
PLAYORDER=
